<svg width="3840" height="2160" viewBox="0 0 3840 2160" fill="none" xmlns="http://www.w3.org/2000/svg">
<g clip-path="url(#clip0)">
<rect width="3840" height="2160" fill="#0B0D0F"/>
<path d="M461.5 278.5C197.5 232.5 275.5 525 0 624.5V0H747C739.833 108.167 672.7 315.3 461.5 278.5Z" fill="url(#paint0_linear)"/>
<path d="M2505 1825.5C2093 1759.5 1849.67 2022.33 1779.5 2162H3842.5V855.5C3632 855.5 3368.5 921 3240 1141C3111.5 1361 3020 1908 2505 1825.5Z" fill="url(#paint1_linear)"/>
<circle cx="213.5" cy="1616.5" r="5.5" fill="#E6E8E9" fill-opacity="0.75"/>
<ellipse cx="466.5" cy="1743" rx="5.5" ry="6" fill="#E6E8E9" fill-opacity="0.75"/>
<circle cx="340" cy="1743" r="6" fill="#E6E8E9" fill-opacity="0.75"/>
<ellipse cx="213.5" cy="1743" rx="5.5" ry="6" fill="#E6E8E9" fill-opacity="0.75"/>
<ellipse cx="340" cy="1616.5" rx="6" ry="5.5" fill="#E6E8E9" fill-opacity="0.75"/>
<circle cx="466.5" cy="1616.5" r="5.5" fill="#E6E8E9" fill-opacity="0.75"/>
<ellipse cx="213.5" cy="1869" rx="5.5" ry="6" fill="#E6E8E9" fill-opacity="0.75"/>
<circle cx="340" cy="1869" r="6" fill="#E6E8E9" fill-opacity="0.75"/>
<ellipse cx="466.5" cy="1869" rx="5.5" ry="6" fill="#E6E8E9" fill-opacity="0.75"/>
<circle cx="213.5" cy="1995.5" r="5.5" fill="#E6E8E9" fill-opacity="0.75"/>
<ellipse cx="340" cy="1995.5" rx="6" ry="5.5" fill="#E6E8E9" fill-opacity="0.75"/>
<circle cx="466.5" cy="1995.5" r="5.5" fill="#E6E8E9" fill-opacity="0.75"/>
<circle cx="593" cy="1743" r="6" fill="#E6E8E9" fill-opacity="0.75"/>
<ellipse cx="593" cy="1616.5" rx="6" ry="5.5" fill="#E6E8E9" fill-opacity="0.75"/>
<circle cx="593" cy="1869" r="6" fill="#E6E8E9" fill-opacity="0.75"/>
<ellipse cx="593" cy="1995.5" rx="6" ry="5.5" fill="#E6E8E9" fill-opacity="0.75"/>
<ellipse cx="3267" cy="165.5" rx="6" ry="6.5" fill="#E6E8E9" fill-opacity="0.75"/>
<ellipse cx="3520.5" cy="293" rx="5.5" ry="6" fill="#E6E8E9" fill-opacity="0.75"/>
<circle cx="3394" cy="293" r="6" fill="#E6E8E9" fill-opacity="0.75"/>
<circle cx="3267" cy="293" r="6" fill="#E6E8E9" fill-opacity="0.75"/>
<ellipse cx="3394" cy="165.5" rx="6" ry="6.5" fill="#E6E8E9" fill-opacity="0.75"/>
<ellipse cx="3520.5" cy="165.5" rx="5.5" ry="6.5" fill="#E6E8E9" fill-opacity="0.75"/>
<ellipse cx="3267" cy="419.5" rx="6" ry="5.5" fill="#E6E8E9" fill-opacity="0.75"/>
<ellipse cx="3394" cy="419.5" rx="6" ry="5.5" fill="#E6E8E9" fill-opacity="0.75"/>
<circle cx="3520.5" cy="419.5" r="5.5" fill="#E6E8E9" fill-opacity="0.75"/>
<circle cx="3267" cy="546" r="6" fill="#E6E8E9" fill-opacity="0.75"/>
<circle cx="3394" cy="546" r="6" fill="#E6E8E9" fill-opacity="0.75"/>
<ellipse cx="3520.5" cy="546" rx="5.5" ry="6" fill="#E6E8E9" fill-opacity="0.75"/>
<ellipse cx="3646.5" cy="293" rx="5.5" ry="6" fill="#E6E8E9" fill-opacity="0.75"/>
<ellipse cx="3646.5" cy="165.5" rx="5.5" ry="6.5" fill="#E6E8E9" fill-opacity="0.75"/>
<circle cx="3646.5" cy="419.5" r="5.5" fill="#E6E8E9" fill-opacity="0.75"/>
<ellipse cx="3646.5" cy="546" rx="5.5" ry="6" fill="#E6E8E9" fill-opacity="0.75"/>
</g>
<defs>
<linearGradient id="paint0_linear" x1="-0.499997" y1="-3.02164e-06" x2="628.5" y2="406" gradientUnits="userSpaceOnUse">
<stop stop-color="#7F00FF"/>
<stop offset="1" stop-color="#E100FF"/>
</linearGradient>
<linearGradient id="paint1_linear" x1="2696" y1="1286" x2="3421.5" y2="2130.5" gradientUnits="userSpaceOnUse">
<stop stop-color="#E100FF"/>
<stop offset="1" stop-color="#7F00FF"/>
</linearGradient>
<clipPath id="clip0">
<rect width="3840" height="2160" fill="white"/>
</clipPath>
</defs>
</svg>
