<svg width="5120" height="1440" viewBox="0 0 5120 1440" fill="none" xmlns="http://www.w3.org/2000/svg">
<rect x="0.5" y="0.5" width="5119" height="1439" fill="#131718"/>
<rect x="1521" y="652" width="1910.25" height="135" fill="white" fill-opacity="0.01"/>
<rect x="1689.75" y="382" width="135" height="236.25" fill="white" fill-opacity="0.01"/>
<rect x="1689.75" y="820.75" width="135" height="236.25" fill="white" fill-opacity="0.01"/>
<rect x="1824.75" y="382" width="303.75" height="135" fill="white" fill-opacity="0.01"/>
<rect x="2416.05" y="382" width="303.75" height="135" fill="white" fill-opacity="0.01"/>
<rect x="3294.9" y="382" width="303.75" height="135" fill="white" fill-opacity="0.01"/>
<rect x="3159.9" y="922" width="303.75" height="135" fill="white" fill-opacity="0.01"/>
<rect x="1824.75" y="922" width="303.75" height="135" fill="white" fill-opacity="0.01"/>
<rect x="3159.9" y="382" width="135" height="236.25" fill="white" fill-opacity="0.01"/>
<rect x="3463.65" y="820.75" width="135" height="236.25" fill="white" fill-opacity="0.01"/>
<rect x="2584.8" y="517" width="135" height="101.7" fill="white" fill-opacity="0.01"/>
<rect x="2281.05" y="820.75" width="135" height="236.25" fill="white" fill-opacity="0.01"/>
<rect x="2872.35" y="382" width="135" height="236.25" fill="white" fill-opacity="0.01"/>
<rect x="2281.05" y="382" width="135" height="236.25" fill="white" fill-opacity="0.01"/>
<rect x="2872.35" y="820.75" width="135" height="236.25" fill="white" fill-opacity="0.01"/>
<rect x="2584.8" y="922" width="135" height="135" fill="white" fill-opacity="0.01"/>
<rect x="0.5" y="0.5" width="5119" height="1439" stroke="black"/>
</svg>
