<svg width="4432" height="1440" viewBox="0 0 4432 1440" fill="none" xmlns="http://www.w3.org/2000/svg">
<path d="M360 0V504H648V288H1296V0H360Z" fill="white"/>
<path d="M4075.2 576H0V864H4075.2V576Z" fill="white"/>
<path d="M360 936H648V1152H1296V1440H360V936Z" fill="white"/>
<path d="M2557 0V505H2269V288H1909.44V504H1621.44V0H2557Z" fill="white"/>
<path d="M4432 0H3496.32V504H3784.32V288H4432V0Z" fill="white"/>
<path d="M4432.32 1440V936H4144.32V1152H3496V1440H4432.32Z" fill="white"/>
<path d="M1909.44 936H1621.44V1440H1909.44V936Z" fill="white"/>
<path d="M2882.88 0H3170.88V504H2882.88V0Z" fill="white"/>
<path d="M2882.88 936H3170.88V1440H2882.88V936Z" fill="white"/>
<path d="M2557.44 1152H2269.44V1440H2557.44V1152Z" fill="white"/>
</svg>
