<svg width="3840" height="2160" viewBox="0 0 3840 2160" fill="none" xmlns="http://www.w3.org/2000/svg">
<g clip-path="url(#clip0)">
<rect width="3840" height="2160" fill="#0B0D0F"/>
<path d="M1218.93 348.292C521.643 290.765 727.659 656.565 0 781V0H1973C1954.07 135.273 1776.76 394.314 1218.93 348.292Z" fill="url(#paint0_linear)"/>
<path d="M1924.25 1832.33C1333.51 1767.66 984.607 2025.17 884 2162H3842V882C3540.18 882 3162.36 946.171 2978.11 1161.71C2793.87 1377.25 2662.67 1913.15 1924.25 1832.33Z" fill="url(#paint1_linear)"/>
<circle cx="213.5" cy="1616.5" r="5.5" fill="#E6E8E9" fill-opacity="0.75"/>
<ellipse cx="466.5" cy="1743" rx="5.5" ry="6" fill="#E6E8E9" fill-opacity="0.75"/>
<circle cx="340" cy="1743" r="6" fill="#E6E8E9" fill-opacity="0.75"/>
<ellipse cx="213.5" cy="1743" rx="5.5" ry="6" fill="#E6E8E9" fill-opacity="0.75"/>
<ellipse cx="340" cy="1616.5" rx="6" ry="5.5" fill="#E6E8E9" fill-opacity="0.75"/>
<circle cx="466.5" cy="1616.5" r="5.5" fill="#E6E8E9" fill-opacity="0.75"/>
<ellipse cx="213.5" cy="1869" rx="5.5" ry="6" fill="#E6E8E9" fill-opacity="0.75"/>
<circle cx="340" cy="1869" r="6" fill="#E6E8E9" fill-opacity="0.75"/>
<ellipse cx="466.5" cy="1869" rx="5.5" ry="6" fill="#E6E8E9" fill-opacity="0.75"/>
<circle cx="213.5" cy="1995.5" r="5.5" fill="#E6E8E9" fill-opacity="0.75"/>
<ellipse cx="340" cy="1995.5" rx="6" ry="5.5" fill="#E6E8E9" fill-opacity="0.75"/>
<circle cx="466.5" cy="1995.5" r="5.5" fill="#E6E8E9" fill-opacity="0.75"/>
<circle cx="593" cy="1743" r="6" fill="#E6E8E9" fill-opacity="0.75"/>
<ellipse cx="593" cy="1616.5" rx="6" ry="5.5" fill="#E6E8E9" fill-opacity="0.75"/>
<circle cx="593" cy="1869" r="6" fill="#E6E8E9" fill-opacity="0.75"/>
<ellipse cx="593" cy="1995.5" rx="6" ry="5.5" fill="#E6E8E9" fill-opacity="0.75"/>
<ellipse cx="3267" cy="165.5" rx="6" ry="6.5" fill="#E6E8E9" fill-opacity="0.75"/>
<ellipse cx="3520.5" cy="293" rx="5.5" ry="6" fill="#E6E8E9" fill-opacity="0.75"/>
<circle cx="3394" cy="293" r="6" fill="#E6E8E9" fill-opacity="0.75"/>
<circle cx="3267" cy="293" r="6" fill="#E6E8E9" fill-opacity="0.75"/>
<ellipse cx="3394" cy="165.5" rx="6" ry="6.5" fill="#E6E8E9" fill-opacity="0.75"/>
<ellipse cx="3520.5" cy="165.5" rx="5.5" ry="6.5" fill="#E6E8E9" fill-opacity="0.75"/>
<ellipse cx="3267" cy="419.5" rx="6" ry="5.5" fill="#E6E8E9" fill-opacity="0.75"/>
<ellipse cx="3394" cy="419.5" rx="6" ry="5.5" fill="#E6E8E9" fill-opacity="0.75"/>
<circle cx="3520.5" cy="419.5" r="5.5" fill="#E6E8E9" fill-opacity="0.75"/>
<circle cx="3267" cy="546" r="6" fill="#E6E8E9" fill-opacity="0.75"/>
<circle cx="3394" cy="546" r="6" fill="#E6E8E9" fill-opacity="0.75"/>
<ellipse cx="3520.5" cy="546" rx="5.5" ry="6" fill="#E6E8E9" fill-opacity="0.75"/>
<ellipse cx="3646.5" cy="293" rx="5.5" ry="6" fill="#E6E8E9" fill-opacity="0.75"/>
<ellipse cx="3646.5" cy="165.5" rx="5.5" ry="6.5" fill="#E6E8E9" fill-opacity="0.75"/>
<circle cx="3646.5" cy="419.5" r="5.5" fill="#E6E8E9" fill-opacity="0.75"/>
<ellipse cx="3646.5" cy="546" rx="5.5" ry="6" fill="#E6E8E9" fill-opacity="0.75"/>
</g>
<defs>
<linearGradient id="paint0_linear" x1="-1.32061" y1="-3.77887e-06" x2="822.057" y2="1122.44" gradientUnits="userSpaceOnUse">
<stop stop-color="#7F00FF"/>
<stop offset="1" stop-color="#E100FF"/>
</linearGradient>
<linearGradient id="paint1_linear" x1="2198.11" y1="1303.77" x2="2825.9" y2="2373.25" gradientUnits="userSpaceOnUse">
<stop stop-color="#E100FF"/>
<stop offset="1" stop-color="#7F00FF"/>
</linearGradient>
<clipPath id="clip0">
<rect width="3840" height="2160" fill="white"/>
</clipPath>
</defs>
</svg>
